<?xml version="1.0" encoding="UTF-8"?>
<!-- Generator: Adobe Illustrator 24.2.3, SVG Export Plug-In . SVG Version: 6.00 Build 0)  -->
<svg xmlns="http://www.w3.org/2000/svg" xmlns:xlink="http://www.w3.org/1999/xlink" version="1.1" id="Capa_1" x="0px" y="0px" viewBox="0 0 511.999 511.999" style="enable-background:new 0 0 511.999 511.999;" xml:space="preserve" width="512" height="512">
<g>
	<path d="M508.232,121.219c-2.512-2.19-5.876-3.126-9.159-2.542c0,0-294.776,52.444-294.788,52.446L35.707,201.114   c-23.498,4.181-39.214,26.699-35.034,50.197c0.233,1.31,0.523,2.595,0.867,3.854c5.157,18.886,22.443,31.865,41.732,31.863   c2.506,0,5.049-0.219,7.6-0.673l173.867-30.932l5.969,14.427c6.102,14.748,20.711,24.185,36.3,24.185   c2.238,0,4.498-0.194,6.754-0.596l202.317-35.993c17.97-3.197,31.543-18.755,32.276-36.991l3.635-90.507   C512.124,126.619,510.741,123.409,508.232,121.219z M22.334,247.458c-1.991-11.193,5.199-21.936,16.155-24.465   c0.353-0.082,0.711-0.154,1.072-0.219l36.277-6.453l7.458,41.92l-36.277,6.454C35.467,266.753,24.39,259.019,22.334,247.458z    M104.956,254.388l-7.458-41.921l101.965-18.14l16.666,40.283L104.956,254.388z M486.373,219.572   c-0.321,7.993-6.271,14.812-14.147,16.214l-202.317,35.993c-7.877,1.398-15.813-2.947-18.871-10.339l-29.399-71.061l267.821-47.647   L486.373,219.572z"/>
	<path style="fill:#33CCCC;" d="M307.898,118.63c-1.186,0-2.392-0.193-3.576-0.6c-5.745-1.975-8.802-8.233-6.828-13.979   l6.603-19.213c0.606-1.763-0.083-3.118-0.548-3.77s-1.523-1.744-3.388-1.744c-8.434,0-16.395-4.099-21.294-10.963   c-4.899-6.865-6.188-15.726-3.446-23.701l6.602-19.214c1.974-5.744,8.229-8.8,13.979-6.828c5.745,1.975,8.802,8.232,6.828,13.979   l-6.603,19.214c-0.606,1.763,0.083,3.118,0.548,3.77s1.522,1.744,3.387,1.744c8.435,0,16.396,4.099,21.295,10.964   c4.899,6.864,6.188,15.725,3.446,23.7l-6.602,19.213C316.732,115.763,312.465,118.63,307.898,118.63z"/>
	<path style="fill:#33CCCC;" d="M405.115,100.794c-1.186,0-2.392-0.193-3.576-0.6c-5.745-1.975-8.802-8.232-6.828-13.979   l6.603-19.214c0.606-1.763-0.083-3.119-0.548-3.77c-0.465-0.651-1.523-1.744-3.388-1.744c-8.434,0-16.394-4.098-21.293-10.963   c-4.9-6.864-6.189-15.725-3.449-23.7l6.603-19.214c1.976-5.744,8.229-8.801,13.979-6.828c5.745,1.975,8.802,8.233,6.828,13.979   l-6.603,19.213c-0.606,1.763,0.084,3.118,0.549,3.77s1.522,1.744,3.387,1.744c8.434,0,16.394,4.098,21.294,10.962   c4.899,6.865,6.188,15.725,3.448,23.701l-6.603,19.215C413.95,97.927,409.683,100.794,405.115,100.794z"/>
	<path style="fill:#33CCCC;" d="M459.488,511.815H279.421c-4.316,0-8.234-2.525-10.018-6.456   c-11.919-26.278-16.998-48.498-15.982-69.929c1.155-24.38,10.364-48.938,28.152-75.076c2.228-3.274,6.06-5.098,9.99-4.775   c3.947,0.323,7.416,2.743,9.082,6.336l17.728,38.222c10.766-9.933,26.501-30.579,24.604-65.38   c-0.211-3.862,1.622-7.551,4.828-9.715s7.312-2.485,10.816-0.848c39.413,18.437,57.466,56.871,64.585,77.437   c9.772-6.593,23.341-20.042,25.924-44.799c0.487-4.669,3.884-8.515,8.456-9.574c4.576-1.066,9.315,0.899,11.807,4.877   c30.03,47.951,30.006,93.896-0.081,153.629C467.443,509.475,463.643,511.815,459.488,511.815z M286.613,489.815h166.014   c18.676-39.319,22.122-70.649,10.4-101.654c-14.324,29.896-41.735,39.291-43.199,39.773c-2.972,0.978-6.22,0.645-8.931-0.916   c-2.712-1.562-4.63-4.203-5.274-7.265c-0.1-0.461-9.406-42.16-41.163-66.414c-5.549,51.151-43.298,72.393-45.09,73.371   c-2.672,1.459-5.826,1.747-8.716,0.794c-2.89-0.952-5.257-3.059-6.536-5.819l-14.774-31.853   C269.237,427.463,272.856,457.132,286.613,489.815z"/>
</g>















</svg>
